<?xml version="1.0" encoding="UTF-8"?><svg id="uuid-cab18c5e-37d3-43ec-8c99-bc9ef50f51e3" xmlns="http://www.w3.org/2000/svg" viewBox="0 0 202.59 58.1"><path d="M31.91,28.79c-1.27-1.79-3.11-3.02-5.52-3.7,3.65-1.77,5.48-4.58,5.48-8.43,0-3.62-1.11-6.19-3.33-7.72-2.23-1.53-5.41-2.29-9.55-2.29H0V47.01H19.56c4.03,0,7.42-.98,10.15-2.94,2.73-1.96,4.1-4.88,4.1-8.76,0-2.56-.64-4.74-1.9-6.53ZM4.49,13.52h6.46s6.22,0,6.22,0c1.81,0,3.28,.34,4.4,1.02,1.14,.68,1.7,1.89,1.7,3.63,0,1.62-.49,2.83-1.47,3.63-.98,.8-2.3,1.19-3.95,1.19H8.87v-7.15c-.11-1.5-4.38-2.32-4.38-2.32Zm18.64,25.42c-1.21,.79-2.79,1.19-4.75,1.19H8.87v-11.08h9.68c2,0,3.57,.47,4.69,1.41,1.13,.94,1.7,2.39,1.7,4.35s-.6,3.34-1.81,4.13Z" fill="#fff" isolation="isolate"/><path d="M73.39,6.65h8.87V39.53h19.69v7.48h-28.56V6.65Z" fill="#fff"/><path d="M115.19,16.99c4.64,0,8.32,1.4,11.05,4.21,2.73,2.81,4.1,6.55,4.1,11.22s-1.38,8.36-4.15,11.16c-2.77,2.81-6.44,4.21-11,4.21s-8.26-1.41-11-4.21c-2.73-2.81-4.1-6.53-4.1-11.16s1.36-8.41,4.1-11.22c2.73-2.81,6.4-4.21,11-4.21Zm0,24.75c2.53,0,4.34-.89,5.45-2.66,1.11-1.77,1.68-3.99,1.68-6.67s-.55-4.96-1.64-6.73c-1.09-1.77-2.92-2.66-5.48-2.66s-4.29,.91-5.4,2.71c-1.11,1.81-1.66,4.03-1.66,6.67s.55,4.9,1.64,6.67c1.09,1.77,2.9,2.66,5.42,2.66Z" fill="#fff"/><path d="M160.06,45.15c0,3.43-1.03,6.44-3.11,9.04-2.07,2.6-6.09,3.9-12.04,3.9-3.35,0-6.34-.79-8.96-2.38-2.62-1.58-3.93-3.91-3.93-7h7.99c.34,1.4,1.04,2.41,2.12,3.06,1.08,.64,2.36,.96,3.87,.96,2.11,0,3.71-.66,4.8-1.98,1.1-1.32,1.64-3.07,1.64-5.26v-3.84c-.91,1.47-2.15,2.59-3.73,3.37-1.59,.77-3.3,1.16-5.15,1.16-4.15,0-7.27-1.38-9.36-4.13-2.09-2.75-3.13-6.28-3.13-10.57,0-4.03,1.11-7.46,3.34-10.27,2.23-2.81,5.3-4.21,9.22-4.21,1.99,0,3.72,.37,5.14,1.1,1.43,.74,2.62,1.94,3.57,3.61l.11-3.91h7.62v27.35Zm-7.62-13.11c0-2.64-.54-4.8-1.61-6.48-1.08-1.68-2.82-2.52-5.24-2.52-2.11,0-3.72,.79-4.83,2.38-1.11,1.59-1.67,3.57-1.67,5.94s.51,4.53,1.53,6.22c1.01,1.7,2.67,2.55,4.97,2.55s3.87-.77,5.06-2.32c1.18-1.55,1.78-3.47,1.78-5.77Z" fill="#fff"/><rect x="163.17" y="17.8" width="8.03" height="29.21" fill="#fff"/><polygon points="171 13.25 162.97 13.25 160.43 6.65 168.46 6.65 171 13.25" fill="#fff" isolation="isolate"/><polygon points="162.97 0 171 0 168.46 6.6 160.43 6.6 162.97 0" fill="#fff"/><path d="M194.55,28.07c-.26-1.66-.89-2.91-1.89-3.76-.99-.85-2.34-1.27-4.03-1.27-2.33,0-4.05,.96-5.16,2.88-1.11,1.92-1.66,4.13-1.66,6.61s.53,4.65,1.58,6.47c1.05,1.83,2.74,2.74,5.07,2.74,1.8,0,3.25-.52,4.34-1.58,1.09-1.05,1.77-2.5,2.03-4.34h7.76c-.49,3.8-1.99,6.74-4.49,8.83-2.5,2.09-5.7,3.13-9.58,3.13-4.4,0-7.97-1.4-10.68-4.18-2.71-2.79-4.07-6.38-4.07-10.8,0-4.63,1.33-8.43,3.98-11.39,2.65-2.96,6.29-4.44,10.92-4.44,3.77,0,7,.96,9.69,2.88,2.7,1.92,4.04,4.66,4.04,8.2h-7.86Z" fill="#fff"/><path d="M47.5,6.65h9.1l15.08,40.36h-9.2l-3.05-9h-15.09l-3.16,9h-8.99L47.5,6.65Zm-.83,24.75h10.44l-5.08-14.82-5.36,14.82Z" fill="#fff" isolation="isolate"/></svg>