<?xml version="1.0" encoding="utf-8"?>
<!-- Generator: Adobe Illustrator 26.5.0, SVG Export Plug-In . SVG Version: 6.00 Build 0)  -->
<svg version="1.1" id="a" xmlns="http://www.w3.org/2000/svg" xmlns:xlink="http://www.w3.org/1999/xlink" x="0px" y="0px"
	 viewBox="0 0 177.4 177.4" style="enable-background:new 0 0 177.4 177.4;" xml:space="preserve">
<style type="text/css">
	.st0{fill:#FFFFFF;}
</style>
<path id="b" class="st0" d="M165.7,104.2c10-5.8,10.6-24.4,10.4-30.8c8.5,48.2-23.8,94.2-72,102.7c-5.9,1-12,1.5-18,1.3
	c11.6-2.3,23.1-8,31.8-23.1c20.1-34.9,12.1-84.8-26.8-110.1c4-2.5,8.3-4.5,12.8-6.1c18.1,18.5,23.2,36.2,32.9,51.5
	C144.6,102,155.8,109.9,165.7,104.2z"/>
<path id="c" class="st0" d="M164.7,102.2c9.9-5.9,12.3-33.3,4.2-47.7c-3.8,21.9-18.1,38-23.1,42.9
	C151.2,102.7,158.2,106,164.7,102.2z"/>
<path id="d" class="st0" d="M36.7,147.6c0,11.6,15.8,21.4,21.5,24.4c-46-16.8-69.7-67.7-52.9-113.7c2.1-5.7,4.7-11.1,7.9-16.2
	c-3.8,11.2-4.6,24,4.1,39.1C37.5,116,84.8,134,126.2,112.9c0.2,4.7-0.2,9.5-1.1,14.1c-25.1,6.4-43.1,2-61.1,2.7
	C49.1,130.4,36.7,136.2,36.7,147.6L36.7,147.6z"/>
<path id="e" class="st0" d="M39,147.7c0.1,11.6,22.7,27.3,39.2,27.5c-17-14.2-23.9-34.7-25.6-41.5C45.3,135.8,38.9,140.2,39,147.7
	L39,147.7z"/>
<path id="f" class="st0" d="M63.6,14.2c-10.1-5.8-26.4,3-31.9,6.5c37.6-31.4,93.5-26.5,125,11.1c3.9,4.6,7.2,9.6,10.1,14.9
	c-7.8-8.8-18.4-16-35.9-16c-40.3,0-79.5,31.9-82,78.3c-4.2-2.2-8.1-4.9-11.7-8c7-24.9,19.8-38.3,28.2-54.2
	C72.3,33.6,73.5,19.9,63.6,14.2L63.6,14.2z"/>
<path id="g" class="st0" d="M62.4,16.1c-10-5.7-35,6-43.4,20.2c20.9-7.6,42-3.4,48.7-1.4C69.5,27.5,69,19.8,62.4,16.1z"/>
</svg>
