<?xml version="1.0" encoding="utf-8"?>
<!-- Generator: Adobe Illustrator 26.5.0, SVG Export Plug-In . SVG Version: 6.00 Build 0)  -->
<svg version="1.1" id="uuid-897f75c1-c01e-4e79-a29e-e48836395cc9"
	 xmlns="http://www.w3.org/2000/svg" xmlns:xlink="http://www.w3.org/1999/xlink" x="0px" y="0px" viewBox="0 0 600 600"
	 style="enable-background:new 0 0 600 600;" xml:space="preserve">
<style type="text/css">
	.st0{fill:#1F76B2;}
	.st1{fill:#FFFFFF;}
</style>
<rect class="st0" width="600" height="600"/>
<g>
	<g>
		<path id="uuid-835f7e64-dac5-4c72-9eb8-a509b932fd86" class="st1" d="M349.9,256.6c6.5-3.8,6.9-15.8,6.7-20
			c5.5,31.3-15.4,61-46.7,66.5c-3.8,0.7-7.7,1-11.7,0.8c7.5-1.5,14.9-5.2,20.6-14.9c13-22.6,7.8-54.9-17.4-71.3
			c2.6-1.6,5.4-2.9,8.3-4c11.7,12,15.1,23.5,21.3,33.3C336.2,255.2,343.5,260.3,349.9,256.6L349.9,256.6z"/>
		<path id="uuid-95394815-5a66-4276-8c46-204d5ccaefad" class="st1" d="M349.2,255.3c6.4-3.8,8-21.6,2.7-30.9
			c-2.5,14.2-11.7,24.6-15,27.8C340.5,255.6,345,257.8,349.2,255.3L349.2,255.3z"/>
		<path id="uuid-8e39997c-2009-48fc-ac04-9b381cedb03a" class="st1" d="M266.3,284.8c0,7.5,10.2,13.9,14,15.8
			c-29.8-10.9-45.1-43.9-34.3-73.7c1.3-3.7,3-7.2,5.1-10.5c-2.4,7.2-3,15.5,2.7,25.3c13,22.6,43.7,34.2,70.5,20.6
			c0.1,3.1-0.1,6.1-0.7,9.1c-16.2,4.1-27.9,1.3-39.6,1.8C274.4,273.6,266.3,277.4,266.3,284.8L266.3,284.8L266.3,284.8z"/>
		<path id="uuid-715231cd-2f2f-4c19-abc9-e5cad750f3fb" class="st1" d="M267.8,284.8c0.1,7.5,14.7,17.7,25.4,17.8
			c-11-9.2-15.5-22.5-16.6-26.9C271.9,277.1,267.8,279.9,267.8,284.8L267.8,284.8L267.8,284.8z"/>
		<path id="uuid-490cabf1-b034-436e-8876-6b60a2cbd4ac" class="st1" d="M283.7,198.4c-6.5-3.8-17.1,1.9-20.7,4.2
			c24.3-20.4,60.6-17.2,81,7.2c2.5,3,4.7,6.2,6.6,9.7c-5.1-5.7-11.9-10.4-23.2-10.4c-26.1,0-51.5,20.7-53.1,50.7
			c-2.7-1.5-5.2-3.2-7.6-5.2c4.5-16.1,12.8-24.8,18.2-35.1C289.4,210.9,290.2,202.1,283.7,198.4L283.7,198.4L283.7,198.4z"/>
		<path id="uuid-d9f4763e-729b-4ddb-8ec1-2a3040d9c85b" class="st1" d="M283,199.6c-6.5-3.7-22.7,3.9-28.1,13.1
			c13.5-5,27.2-2.2,31.6-0.9C287.6,207,287.2,202,283,199.6z"/>
	</g>
</g>
</svg>
